<mxfile host="app.diagrams.net" modified="2022-01-22T16:30:12.744Z" agent="5.0 (Windows NT 10.0; Win64; x64) AppleWebKit/537.36 (KHTML, like Gecko) Chrome/97.0.4692.71 Safari/537.36" etag="xFJ_-GUkcMCyQxF7f6tz" version="16.4.5" type="github">
  <diagram id="oHyND7SKSy_PXqvl7EZX" name="Page-1">
    <mxGraphModel dx="2031" dy="1108" grid="1" gridSize="10" guides="1" tooltips="1" connect="1" arrows="1" fold="1" page="1" pageScale="1" pageWidth="827" pageHeight="1169" math="0" shadow="0">
      <root>
        <mxCell id="0" />
        <mxCell id="1" parent="0" />
        <mxCell id="HE8rp8BrMAz7t_WiHR2--5" style="edgeStyle=orthogonalEdgeStyle;rounded=0;orthogonalLoop=1;jettySize=auto;html=1;fontSize=15;" edge="1" parent="1" source="HE8rp8BrMAz7t_WiHR2--1" target="HE8rp8BrMAz7t_WiHR2--4">
          <mxGeometry relative="1" as="geometry" />
        </mxCell>
        <mxCell id="HE8rp8BrMAz7t_WiHR2--1" value="&lt;pre style=&quot;background-color: rgb(43 , 43 , 43) ; color: rgb(169 , 183 , 198) ; font-family: &amp;#34;jetbrains mono&amp;#34; , monospace ; font-size: 15px&quot;&gt;SpringApplication.&lt;span style=&quot;font-style: italic&quot;&gt;run&lt;/span&gt;(DemoApplication.&lt;span style=&quot;color: #cc7832&quot;&gt;class, &lt;/span&gt;args)&lt;span style=&quot;color: #cc7832&quot;&gt;;&lt;/span&gt;&lt;/pre&gt;" style="rounded=1;whiteSpace=wrap;html=1;" vertex="1" parent="1">
          <mxGeometry x="-85" y="220" width="400" height="40" as="geometry" />
        </mxCell>
        <mxCell id="HE8rp8BrMAz7t_WiHR2--3" style="edgeStyle=orthogonalEdgeStyle;rounded=0;orthogonalLoop=1;jettySize=auto;html=1;fontSize=15;" edge="1" parent="1" source="HE8rp8BrMAz7t_WiHR2--2" target="HE8rp8BrMAz7t_WiHR2--1">
          <mxGeometry relative="1" as="geometry" />
        </mxCell>
        <mxCell id="HE8rp8BrMAz7t_WiHR2--2" value="开始" style="rounded=1;whiteSpace=wrap;html=1;fontSize=15;" vertex="1" parent="1">
          <mxGeometry x="55" y="120" width="120" height="50" as="geometry" />
        </mxCell>
        <mxCell id="HE8rp8BrMAz7t_WiHR2--13" style="edgeStyle=orthogonalEdgeStyle;rounded=0;orthogonalLoop=1;jettySize=auto;html=1;fontSize=14;" edge="1" parent="1" source="HE8rp8BrMAz7t_WiHR2--4" target="HE8rp8BrMAz7t_WiHR2--11">
          <mxGeometry relative="1" as="geometry" />
        </mxCell>
        <mxCell id="HE8rp8BrMAz7t_WiHR2--4" value="&lt;pre style=&quot;background-color: #2b2b2b ; color: #a9b7c6 ; font-family: &amp;quot;jetbrains mono&amp;quot; , monospace ; font-size: 9.8pt&quot;&gt;&lt;span style=&quot;color: #cc7832&quot;&gt;return new &lt;/span&gt;SpringApplication(primarySources).run(args)&lt;span style=&quot;color: #cc7832&quot;&gt;;&lt;/span&gt;&lt;/pre&gt;" style="rounded=0;whiteSpace=wrap;html=1;fontSize=15;" vertex="1" parent="1">
          <mxGeometry x="-115" y="290" width="460" height="40" as="geometry" />
        </mxCell>
        <mxCell id="HE8rp8BrMAz7t_WiHR2--9" value="这主要分为两步，&lt;br&gt;&lt;div&gt;&lt;span&gt;1.&amp;nbsp;&lt;/span&gt;&lt;span style=&quot;font-family: &amp;#34;jetbrains mono&amp;#34; , monospace ; font-size: 9.8pt&quot;&gt;new &lt;/span&gt;&lt;span style=&quot;font-family: &amp;#34;jetbrains mono&amp;#34; , monospace ; font-size: 9.8pt&quot;&gt;SpringApplication(primarySources）&lt;/span&gt;&lt;/div&gt;&lt;div&gt;&lt;span style=&quot;font-family: &amp;#34;jetbrains mono&amp;#34; , monospace ; font-size: 9.8pt&quot;&gt;&amp;nbsp;主要是加载了初始化器和应用启动见监听器的全类名，并且初始化再复制给SpringApplication对应的成员变量&lt;/span&gt;&lt;/div&gt;&lt;span style=&quot;font-family: &amp;#34;jetbrains mono&amp;#34; , monospace ; font-size: 9.8pt&quot;&gt;2. run执行启动&lt;br&gt;&lt;/span&gt;" style="whiteSpace=wrap;html=1;fontSize=15;rounded=0;align=left;verticalAlign=top;" vertex="1" parent="1">
          <mxGeometry x="440" y="170" width="370" height="190" as="geometry" />
        </mxCell>
        <mxCell id="HE8rp8BrMAz7t_WiHR2--11" value="&lt;font style=&quot;font-size: 16px&quot;&gt;1.&amp;nbsp;&lt;span style=&quot;font-family: &amp;#34;jetbrains mono&amp;#34; , monospace ; color: rgb(204 , 120 , 50) ; background-color: rgb(0 , 0 , 0)&quot;&gt;new &lt;/span&gt;&lt;span style=&quot;color: rgb(169 , 183 , 198) ; font-family: &amp;#34;jetbrains mono&amp;#34; , monospace&quot;&gt;&lt;span style=&quot;background-color: rgb(0 , 0 , 0)&quot;&gt;SpringApplication(primarySources)&lt;/span&gt;&lt;br&gt;&lt;/span&gt;&lt;/font&gt;&lt;pre style=&quot;background-color: rgb(43 , 43 , 43) ; color: rgb(169 , 183 , 198) ; font-family: &amp;#34;jetbrains mono&amp;#34; , monospace ; font-size: 14px&quot;&gt;&lt;pre style=&quot;font-family: &amp;#34;jetbrains mono&amp;#34; , monospace&quot;&gt;&lt;pre style=&quot;font-family: &amp;#34;jetbrains mono&amp;#34; , monospace ; font-size: 9.8pt&quot;&gt;&lt;span style=&quot;color: #cc7832&quot;&gt;public &lt;/span&gt;&lt;span style=&quot;color: #ffc66d&quot;&gt;SpringApplication&lt;/span&gt;(ResourceLoader resourceLoader&lt;span style=&quot;color: #cc7832&quot;&gt;, &lt;/span&gt;Class&amp;lt;?&amp;gt;... primarySources) {&lt;br&gt;   &lt;span style=&quot;color: #808080&quot;&gt;// resourceLoader &lt;/span&gt;&lt;span style=&quot;color: #808080 ; font-family: &amp;#34;courier new&amp;#34; , monospace&quot;&gt;设置为&lt;/span&gt;&lt;span style=&quot;color: #808080&quot;&gt;null(&lt;/span&gt;&lt;span style=&quot;color: #808080 ; font-family: &amp;#34;courier new&amp;#34; , monospace&quot;&gt;资源加载器&lt;/span&gt;&lt;span style=&quot;color: #808080&quot;&gt;)&lt;br&gt;&lt;/span&gt;&lt;span style=&quot;color: #808080&quot;&gt;   &lt;/span&gt;&lt;span style=&quot;color: #cc7832&quot;&gt;this&lt;/span&gt;.&lt;span style=&quot;color: #9876aa&quot;&gt;resourceLoader &lt;/span&gt;= resourceLoader&lt;span style=&quot;color: #cc7832&quot;&gt;;&lt;br&gt;&lt;/span&gt;&lt;span style=&quot;color: #cc7832&quot;&gt;   &lt;/span&gt;Assert.&lt;span style=&quot;font-style: italic&quot;&gt;notNull&lt;/span&gt;(primarySources&lt;span style=&quot;color: #cc7832&quot;&gt;, &lt;/span&gt;&lt;span style=&quot;color: #6a8759&quot;&gt;&quot;PrimarySources must not be null&quot;&lt;/span&gt;)&lt;span style=&quot;color: #cc7832&quot;&gt;;&lt;br&gt;&lt;/span&gt;&lt;span style=&quot;color: #cc7832&quot;&gt;   &lt;/span&gt;&lt;span style=&quot;color: #808080&quot;&gt;// &lt;/span&gt;&lt;span style=&quot;color: #808080 ; font-family: &amp;#34;courier new&amp;#34; , monospace&quot;&gt;将我们的主类放到这个成员成员变量&lt;br&gt;&lt;/span&gt;&lt;span style=&quot;color: #808080 ; font-family: &amp;#34;courier new&amp;#34; , monospace&quot;&gt;   &lt;/span&gt;&lt;span style=&quot;color: #cc7832&quot;&gt;this&lt;/span&gt;.&lt;span style=&quot;color: #9876aa&quot;&gt;primarySources &lt;/span&gt;= &lt;span style=&quot;color: #cc7832&quot;&gt;new &lt;/span&gt;LinkedHashSet&amp;lt;&amp;gt;(Arrays.&lt;span style=&quot;font-style: italic&quot;&gt;asList&lt;/span&gt;(primarySources))&lt;span style=&quot;color: #cc7832&quot;&gt;;&lt;br&gt;&lt;/span&gt;&lt;span style=&quot;color: #cc7832&quot;&gt;   &lt;/span&gt;&lt;span style=&quot;color: #808080&quot;&gt;// &lt;/span&gt;&lt;span style=&quot;color: #808080 ; font-family: &amp;#34;courier new&amp;#34; , monospace&quot;&gt;推到&lt;/span&gt;&lt;span style=&quot;color: #808080&quot;&gt;web&lt;/span&gt;&lt;span style=&quot;color: #808080 ; font-family: &amp;#34;courier new&amp;#34; , monospace&quot;&gt;应用的类型，是&lt;/span&gt;&lt;span style=&quot;color: #808080&quot;&gt;servlet&lt;/span&gt;&lt;span style=&quot;color: #808080 ; font-family: &amp;#34;courier new&amp;#34; , monospace&quot;&gt;还是&lt;/span&gt;&lt;span style=&quot;color: #808080&quot;&gt;reactive&lt;br&gt;&lt;/span&gt;&lt;span style=&quot;color: #808080&quot;&gt;   &lt;/span&gt;&lt;span style=&quot;color: #cc7832&quot;&gt;this&lt;/span&gt;.&lt;span style=&quot;color: #9876aa&quot;&gt;webApplicationType &lt;/span&gt;= WebApplicationType.&lt;span style=&quot;font-style: italic&quot;&gt;deduceFromClasspath&lt;/span&gt;()&lt;span style=&quot;color: #cc7832&quot;&gt;;&lt;br&gt;&lt;/span&gt;&lt;span style=&quot;color: #cc7832&quot;&gt;   &lt;/span&gt;&lt;span style=&quot;color: #808080&quot;&gt;// &lt;/span&gt;&lt;span style=&quot;color: #808080 ; font-family: &amp;#34;courier new&amp;#34; , monospace&quot;&gt;从&lt;/span&gt;&lt;span style=&quot;color: #808080&quot;&gt; jar&lt;/span&gt;&lt;span style=&quot;color: #808080 ; font-family: &amp;#34;courier new&amp;#34; , monospace&quot;&gt;包和自己项目中的&lt;/span&gt;&lt;span style=&quot;color: #808080&quot;&gt; META-INF/spring.factories &lt;/span&gt;&lt;span style=&quot;color: #808080 ; font-family: &amp;#34;courier new&amp;#34; , monospace&quot;&gt;中的值拿出来&lt;/span&gt;&lt;span style=&quot;color: #808080&quot;&gt;, &lt;br&gt;&lt;/span&gt;&lt;span style=&quot;color: #808080&quot;&gt;   // &lt;/span&gt;&lt;span style=&quot;color: #808080 ; font-family: &amp;#34;courier new&amp;#34; , monospace&quot;&gt;这个是拿去&lt;/span&gt;&lt;span style=&quot;color: #808080&quot;&gt;ApplicationListener&lt;/span&gt;&lt;span style=&quot;color: #808080 ; font-family: &amp;#34;courier new&amp;#34; , monospace&quot;&gt;全类名为&lt;/span&gt;&lt;span style=&quot;color: #808080&quot;&gt;key&lt;/span&gt;&lt;span style=&quot;color: #808080 ; font-family: &amp;#34;courier new&amp;#34; , monospace&quot;&gt;的属性值&lt;/span&gt;&lt;span style=&quot;color: #808080&quot;&gt;, &lt;/span&gt;&lt;span style=&quot;color: #808080 ; font-family: &amp;#34;courier new&amp;#34; , monospace&quot;&gt;并赋值给&lt;/span&gt;&lt;span style=&quot;color: #808080&quot;&gt; initializers&lt;br&gt;&lt;/span&gt;&lt;span style=&quot;color: #808080&quot;&gt;   &lt;/span&gt;setInitializers((Collection) getSpringFactoriesInstances(ApplicationContextInitializer.&lt;span style=&quot;color: #cc7832&quot;&gt;class&lt;/span&gt;))&lt;span style=&quot;color: #cc7832&quot;&gt;;&lt;br&gt;&lt;/span&gt;&lt;span style=&quot;color: #cc7832&quot;&gt;   &lt;/span&gt;&lt;span style=&quot;color: #808080&quot;&gt;// &lt;/span&gt;&lt;span style=&quot;color: #808080 ; font-family: &amp;#34;courier new&amp;#34; , monospace&quot;&gt;从&lt;/span&gt;&lt;span style=&quot;color: #808080&quot;&gt; jar&lt;/span&gt;&lt;span style=&quot;color: #808080 ; font-family: &amp;#34;courier new&amp;#34; , monospace&quot;&gt;包和自己项目中的&lt;/span&gt;&lt;span style=&quot;color: #808080&quot;&gt; META-INF/spring.factories &lt;/span&gt;&lt;span style=&quot;color: #808080 ; font-family: &amp;#34;courier new&amp;#34; , monospace&quot;&gt;中的值拿出来，&lt;br&gt;&lt;/span&gt;&lt;span style=&quot;color: #808080 ; font-family: &amp;#34;courier new&amp;#34; , monospace&quot;&gt;   &lt;/span&gt;&lt;span style=&quot;color: #808080&quot;&gt;// &lt;/span&gt;&lt;span style=&quot;color: #808080 ; font-family: &amp;#34;courier new&amp;#34; , monospace&quot;&gt;这个是拿去&lt;/span&gt;&lt;span style=&quot;color: #808080&quot;&gt;ApplicationListener&lt;/span&gt;&lt;span style=&quot;color: #808080 ; font-family: &amp;#34;courier new&amp;#34; , monospace&quot;&gt;全类名为&lt;/span&gt;&lt;span style=&quot;color: #808080&quot;&gt;key&lt;/span&gt;&lt;span style=&quot;color: #808080 ; font-family: &amp;#34;courier new&amp;#34; , monospace&quot;&gt;的属性值&lt;/span&gt;&lt;span style=&quot;color: #808080&quot;&gt;, &lt;/span&gt;&lt;span style=&quot;color: #808080 ; font-family: &amp;#34;courier new&amp;#34; , monospace&quot;&gt;并赋值给&lt;/span&gt;&lt;span style=&quot;color: #808080&quot;&gt; listeners&lt;br&gt;&lt;/span&gt;&lt;span style=&quot;color: #808080&quot;&gt;   &lt;/span&gt;setListeners((Collection) getSpringFactoriesInstances(ApplicationListener.&lt;span style=&quot;color: #cc7832&quot;&gt;class&lt;/span&gt;))&lt;span style=&quot;color: #cc7832&quot;&gt;;&lt;br&gt;&lt;/span&gt;&lt;span style=&quot;color: #cc7832&quot;&gt;   this&lt;/span&gt;.&lt;span style=&quot;color: #9876aa&quot;&gt;mainApplicationClass &lt;/span&gt;= deduceMainApplicationClass()&lt;span style=&quot;color: #cc7832&quot;&gt;;&lt;br&gt;&lt;/span&gt;}&lt;br&gt;&lt;/pre&gt;&lt;/pre&gt;&lt;/pre&gt;&lt;span style=&quot;background-color: rgb(43 , 43 , 43) ; font-family: &amp;#34;jetbrains mono&amp;#34; , monospace ; font-size: 16px&quot;&gt;&lt;br&gt;&lt;/span&gt;" style="whiteSpace=wrap;html=1;fontSize=15;rounded=0;align=left;verticalAlign=top;" vertex="1" parent="1">
          <mxGeometry x="-230" y="400" width="690" height="310" as="geometry" />
        </mxCell>
      </root>
    </mxGraphModel>
  </diagram>
</mxfile>
